<?xml version="1.0" encoding="utf-8"?>
<!-- Generator: Adobe Illustrator 27.0.0, SVG Export Plug-In . SVG Version: 6.00 Build 0)  -->
<svg version="1.1" id="Layer_1" xmlns="http://www.w3.org/2000/svg" xmlns:xlink="http://www.w3.org/1999/xlink" x="0px" y="0px"
	 viewBox="0 0 243.9 55.2" style="enable-background:new 0 0 243.9 55.2;" xml:space="preserve">
<style type="text/css">
	.st0{fill:#FFFFFF;stroke:#A3A3A3;stroke-miterlimit:10;}
	.st1{fill:url(#SVGID_1_);}
	.st2{fill:url(#SVGID_00000142878115881365266920000015381302197509913525_);}
	.st3{fill:url(#SVGID_00000124146574391444335950000016327141977529779885_);}
	.st4{fill:url(#SVGID_00000181064317740462039080000003386568966036913835_);}
	.st5{fill:#A5A5A5;}
	.st6{fill:url(#SVGID_00000011721571226432497580000007465012898723961768_);}
	.st7{fill:#B9B9B9;}
</style>
<g>
	<path class="st0" d="M42.8,22.7H51c6.6,0,11.2,4.5,11.2,10.3v0.1c0,5.8-4.5,10.3-11.2,10.3h-8.2V22.7 M51,39.2
		c3.8,0,6.3-2.5,6.3-6.1V33c0-3.6-2.5-6.2-6.3-6.2h-3.5v12.4L51,39.2"/>
	<path class="st0" d="M66.2,22.7h15.9v4H70.9v4.2h9.9v4h-9.9v4.3h11.4v4h-16L66.2,22.7"/>
	<path class="st0" d="M84.9,40.3l2.8-3.2c1.9,1.5,3.9,2.5,6.3,2.5c1.9,0,3-0.8,3-1.9v-0.1c0-1.2-0.8-1.8-4.2-2.6
		c-4.2-1.1-7-2.2-7-6.3v-0.1c0-3.7,3-6.2,7.4-6.2c3,0,5.7,0.9,7.8,2.6l-2.4,3.5c-1.8-1.3-3.7-2-5.5-2s-2.7,0.8-2.7,1.8v-0.1
		c0,1.3,0.9,1.8,4.5,2.7c4.3,1.1,6.6,2.6,6.6,6.1v0.1c0,4.1-3.2,6.4-7.7,6.4C90.6,43.5,87.4,42.4,84.9,40.3"/>
	<path class="st0" d="M105.7,22.7h4.6v20.6h-4.6V22.7"/>
	<path class="st0" d="M114.7,33c0-5.9,4.6-10.7,11-10.7c3.8,0,6,1,8.2,2.9l-2.9,3.5c-1.6-1.3-3-2.1-5.5-2.1c-3.4,0-6,2.9-6,6.4v0.1
		c0,3.8,2.6,6.6,6.4,6.6c1.7,0,3.2-0.4,4.4-1.3v-2.9h-4.7v-3.9h9.1v8.9c-2.2,1.8-5.1,3.3-9,3.3C119.1,43.5,114.7,39.1,114.7,33"/>
	<path class="st0" d="M139.1,22.7h4.3l9.8,12.6V22.7h4.5v20.6h-3.9l-10.2-13.1v13.1h-4.5L139.1,22.7L139.1,22.7z"/>
</g>
<g>
	
		<linearGradient id="SVGID_1_" gradientUnits="userSpaceOnUse" x1="160.66" y1="1055" x2="244.86" y2="1055" gradientTransform="matrix(1 0 0 1 0 -1022)">
		<stop  offset="0.73" style="stop-color:#B9B9B9"/>
		<stop  offset="0.884" style="stop-color:#B9B9B9"/>
	</linearGradient>
	<path class="st1" d="M162.8,22.7h9.6c2.7,0,4.7,0.8,6.1,2.1c1.2,1.2,1.8,2.8,1.8,4.7v0.1c0,3.3-1.8,5.4-4.5,6.4l5.1,7.3h-5.4
		l-4.5-6.6h-0.1h-3.6v6.6h-4.7V22.7H162.8 M172.1,32.6c2.3,0,3.5-1.2,3.5-2.9v-0.1c0-1.9-1.3-2.9-3.6-2.9h-4.6v5.9H172.1"/>
	
		<linearGradient id="SVGID_00000157308154137043987680000017945686946129140156_" gradientUnits="userSpaceOnUse" x1="160.66" y1="1054.95" x2="244.86" y2="1054.95" gradientTransform="matrix(1 0 0 1 0 -1022)">
		<stop  offset="0.73" style="stop-color:#B9B9B9"/>
		<stop  offset="0.884" style="stop-color:#B9B9B9"/>
	</linearGradient>
	<path style="fill:url(#SVGID_00000157308154137043987680000017945686946129140156_);" d="M184.2,34.4V22.6h4.6v11.6
		c0,3.4,1.7,5,4.5,5s4.5-1.7,4.5-5V22.5h4.6v11.6c0,6.2-3.6,9.3-9.2,9.3C187.6,43.4,184.2,40.4,184.2,34.4"/>
	
		<linearGradient id="SVGID_00000103945583158083091740000013581472856576760758_" gradientUnits="userSpaceOnUse" x1="160.66" y1="1054.95" x2="244.86" y2="1054.95" gradientTransform="matrix(1 0 0 1 0 -1022)">
		<stop  offset="0.73" style="stop-color:#B9B9B9"/>
		<stop  offset="0.884" style="stop-color:#B9B9B9"/>
	</linearGradient>
	<path style="fill:url(#SVGID_00000103945583158083091740000013581472856576760758_);" d="M205.7,40.3l2.8-3.2
		c1.9,1.5,3.9,2.5,6.3,2.5c1.9,0,3-0.8,3-1.9v-0.1c0-1.2-0.8-1.8-4.2-2.6c-4.2-1.1-7-2.2-7-6.3v-0.1c0-3.7,3-6.2,7.4-6.2
		c3,0,5.7,0.9,7.8,2.6l-2.4,3.5c-1.8-1.3-3.7-2-5.5-2s-2.7,0.8-2.7,1.8v-0.1c0,1.3,0.9,1.8,4.5,2.7c4.3,1.1,6.6,2.6,6.6,6.1v0.1
		c0,4.1-3.2,6.4-7.7,6.4C211.5,43.5,208.2,42.4,205.7,40.3"/>
	
		<linearGradient id="SVGID_00000155139675392945637710000010376414552682711221_" gradientUnits="userSpaceOnUse" x1="160.66" y1="1055" x2="244.86" y2="1055" gradientTransform="matrix(1 0 0 1 0 -1022)">
		<stop  offset="0.73" style="stop-color:#B9B9B9"/>
		<stop  offset="0.884" style="stop-color:#B9B9B9"/>
	</linearGradient>
	<path style="fill:url(#SVGID_00000155139675392945637710000010376414552682711221_);" d="M226.3,22.7h4.6v8.2h8.5v-8.2h4.6v20.6
		h-4.6v-8.2h-8.5v8.2h-4.6V22.7"/>
</g>
<path class="st5" d="M16.4,34.3C16.3,34.3,16.3,34.2,16.4,34.3L15.9,34l-0.1-0.1L4,25.5c0,0-0.1,0-0.1-0.1l-0.2-0.2l-0.1-0.1H3.4
	L0,22.7l6.7,1c0.3,0,0.4,0.1,0.7,0.2c0.1,0,0.3,0.1,0.3,0.1c0.3,0.1,0.4,0.2,0.6,0.3s0.3,0.2,0.5,0.3c0.1,0.1,0.3,0.2,0.3,0.3
	C9.2,25,9.3,25,9.4,25.1c0.2,0.1,0.3,0.2,0.3,0.3c0.3,0.3,0.5,0.6,0.8,0.8l5.3,7.5l0.1,0.1L16.4,34.3"/>
<linearGradient id="SVGID_00000024704181302231202760000009812010534131914158_" gradientUnits="userSpaceOnUse" x1="160.755" y1="1066.6981" x2="9.503281e-02" y2="1054.4241" gradientTransform="matrix(1 0 0 1 0 -1022)">
	<stop  offset="0.73" style="stop-color:#B9B9B9"/>
	<stop  offset="0.884" style="stop-color:#B9B9B9"/>
</linearGradient>
<path style="fill:url(#SVGID_00000024704181302231202760000009812010534131914158_);" d="M16.4,45.9l-0.5-0.8L15.8,45L0.1,22.7
	l3.4,2.4l0.6,0.4l11.8,8.4H16l0.4,0.3c0,0,0.1,0,0.1,0.1l0.5-0.4l15.9-11.2l-16,22.4l-0.1,0.1L16.4,45.9"/>
<g>
	<path class="st5" d="M16.4,30.5l-0.5-0.8l-0.1-0.1l-3.9-5.4l3.9,0.8h0.1l0.5,0.1l0.5-0.1l3.8-0.9l-3.8,5.6v0.1L16.4,30.5"/>
	<path class="st5" d="M33,22.6l-5,0.7l-1.9,0.3c-1.5,0.2-2.9,1-3.8,2.3L17,33.5l-0.1,0.1l-0.5,0.7l0.6-0.6l0.1-0.1l-0.7,0.7
		l13.5-9.6L33,22.6"/>
</g>
<g>
	<path class="st7" d="M18.9,6.8c0,4.4-7.6,6.7-7.6,11.4c-0.1,1.1,0.2,2.2,0.7,3.2c0,0-2.9-2.8-2.9-5.8s2.8-7.5,2.8-7.5
		c0,2,0.8,2.6,1.6,2.7h0.1c0.9,0,1.4-0.7,1.4-1.7s-1.1-2-1.1-4c0-1.9,2.4-5,2.4-5C18,2.1,18.9,4.4,18.9,6.8"/>
	<path class="st7" d="M16.8,22.8c-2.4,0-4.2-1.9-4.2-4.2v-0.1c0-5.1,7.1-5.6,7.1-12.5c0.2,0.3,2.1,2.9,2.1,5.7
		c0,3.5-3.3,4.4-3.3,6.1c0,0.7,0.3,1.2,1.3,1.2c0.1,0,0.2,0,0.3-0.1c1.9-0.8,3.2-2.6,3.3-4.7C23.4,14.3,24.4,22.8,16.8,22.8"/>
</g>
<g>
	<path class="st5" d="M19.9,19c0.1,0,0.2,0,0.3-0.1c-1,0.3-4.7,1.2-4.7-1.4c0-3.2,5.5-3.9,5.5-6.6c0-1.7-0.4-3.4-1.3-4.9
		c0.2,0.3,2.1,2.9,2.1,5.7c0,3.5-3.3,4.4-3.3,6.1C18.6,18.5,19,19,19.9,19"/>
	<path class="st5" d="M16.9,8.6c0,2.5-3.2,2.3-3.4,2.2h0.3c0.9,0,1.4-0.7,1.4-1.7s-1.1-2-1.1-4c0-1.9,2.4-5,2.4-5
		c-0.8,1.3-1.2,2.7-1.3,4.1C15.2,6.5,16.9,6.7,16.9,8.6"/>
	<path class="st5" d="M14.9,52.3l-2.2-1.5h2.7l0.9-2.7l0.8,2.7h2.7l-2.2,1.5l0.8,2.6l-2.2-1.6l-2.3,1.6L14.9,52.3"/>
	<path class="st5" d="M26.4,52.3l-2.2-1.5h2.7l0.9-2.7l0.8,2.7h2.7l-2.2,1.5l0.8,2.6l-2.2-1.6l-2.3,1.6L26.4,52.3"/>
	<path class="st5" d="M3.5,52.3l-2.2-1.5H4l0.9-2.7l0.8,2.7h2.7l-2.2,1.5L7,54.9l-2.2-1.6l-2.2,1.6L3.5,52.3"/>
</g>
</svg>
